<svg version="1" xmlns="http://www.w3.org/2000/svg" width="1432" height="1432" viewBox="0 0 1074.000000 1074.000000"><path d="M89.7 186.2c-14.4 1.9-24.1 10-27.8 23.3-2.1 7.6-2-14.6-2.1 349.5-.1 147.1.2 269.3.6 271.4.3 2.1.9 4.9 1.2 6 .4 1.8 0 2.2-2.1 2.4-1.4.1-6.5 2.3-11.3 4.8-4.8 2.6-13.9 7.4-20.2 10.7-6.3 3.4-15.1 8-19.5 10.3-7 3.7-8 4.6-8.3 7.3-.4 3.8.9 4.5 12.3 6 5 .7 11 1.6 13.5 2.1 2.5.6 6.8 1.2 9.5 1.5 2.8.3 6.4.7 8 1 1.7.3 5.2.7 7.9 1 2.8.3 6.8 1.4 9 2.5 2.3 1 7 2.4 10.5 2.9 6.7 1.1 24.9.8 29.1-.4 3.1-.9 872.1-1.4 873.5-.5 1.7 1.1 8.4 1.5 21.5 1.4 11.2-.1 13.2-.4 19-2.8 7.1-2.9 7.9-3.1 15.9-4 7.5-.9 19.3-2.6 21.1-3.1.8-.2 3.5-.6 6-.9 2.5-.4 5.9-.9 7.5-1.2 1.7-.3 3.9-.7 5.1-.8 3.3-.4 4.1-1.3 4.2-4.5.1-3-1.4-4.2-14-11.6-1-.6-6.5-3.9-12.4-7.5-5.8-3.6-11.8-7.2-13.3-8.1-6.2-3.8-9.8-5.6-12.2-6.2-2.6-.7-2.6-.7-1.3-4.4 1.1-3.2 1.3-53.2 1-311.3-.1-169.1-.6-309.3-1-311.4-.6-3.7-4.2-11.2-6.9-14.6-2.1-2.6-9.1-7.7-11.7-8.4-1.4-.4-4.1-1.2-6-1.8-4.1-1.2-896.8-1.8-906.3-.6z"/></svg>